<?xml version="1.0" encoding="UTF-8"?>
<svg id="Layer_2" data-name="Layer 2" xmlns="http://www.w3.org/2000/svg" viewBox="0 0 196.73 226.77">
  <g id="Layer_1-2" data-name="Layer 1">
    <path d="M196.09,56.22l-31.97-18.46c-.4-.23-.88-.23-1.28,0l-29.31,16.92c-.85.49-1.92-.12-1.92-1.11V19.74c0-.46-.24-.88-.64-1.11L99.01.17c-.4-.23-.88-.23-1.28,0l-31.97,18.46c-.4.23-.64.65-.64,1.11v33.84c0,.99-1.07,1.6-1.92,1.11l-29.31-16.92c-.4-.23-.88-.23-1.28,0L.64,56.22c-.4.23-.64.65-.64,1.11v36.92c0,.46.24.88.64,1.11l29.31,16.92c.85.49.85,1.72,0,2.22L.64,131.41c-.4.23-.64.65-.64,1.11v36.92c0,.46.24.88.64,1.11l31.97,18.46c.4.23.88.23,1.28,0l29.31-16.92c.85-.49,1.92.12,1.92,1.11v33.84c0,.46.24.88.64,1.11l31.97,18.46c.4.23.88.23,1.28,0l31.97-18.46c.4-.23.64-.65.64-1.11v-33.84c0-.99,1.07-1.6,1.92-1.11l29.31,16.92c.4.23.88.23,1.28,0l31.97-18.46c.4-.23.64-.65.64-1.11v-36.92c0-.46-.24-.88-.64-1.11l-29.31-16.92c-.85-.49-.85-1.72,0-2.22l29.31-16.92c.4-.23.64-.65.64-1.11v-36.92c0-.46-.24-.88-.64-1.11ZM164.12,39.36l28.62,16.52c.85.49.85,1.72,0,2.22l-59.2,34.18c-.85.49-1.92-.12-1.92-1.11v-33.04c0-.46.24-.88.64-1.11l30.59-17.66c.4-.23.88-.23,1.28,0ZM99.06,109.97v-33.04c0-.46.24-.88.64-1.11l28.62-16.52c.85-.49,1.92.12,1.92,1.11v33.04c0,.46-.24.88-.64,1.11l-28.62,16.52c-.85.49-1.92-.12-1.92-1.11ZM95.75,111.08l-28.62-16.52c-.4-.23-.64-.65-.64-1.11v-33.04c0-.99,1.07-1.6,1.92-1.11l28.62,16.52c.4.23.64.65.64,1.11v33.04c0,.99-1.07,1.6-1.92,1.11ZM95.06,114.49l-28.62,16.52c-.4.23-.88.23-1.28,0l-28.62-16.52c-.85-.49-.85-1.72,0-2.22l28.62-16.52c.4-.23.88-.23,1.28,0l28.62,16.52c.85.49.85,1.72,0,2.22ZM97.68,116.8v33.04c0,.46-.24.88-.64,1.11l-28.62,16.52c-.85.49-1.92-.12-1.92-1.11v-33.04c0-.46.24-.88.64-1.11l28.62-16.52c.85-.49,1.92.12,1.92,1.11ZM100.98,115.69l28.62,16.52c.4.23.64.65.64,1.11v33.04c0,.99-1.07,1.6-1.92,1.11l-28.62-16.52c-.4-.23-.64-.65-.64-1.11v-33.04c0-.99,1.07-1.6,1.92-1.11ZM101.67,112.28l28.62-16.52c.4-.23.88-.23,1.28,0l28.62,16.52c.85.49.85,1.72,0,2.22l-28.62,16.52c-.4.23-.88.23-1.28,0l-28.62-16.52c-.85-.49-.85-1.72,0-2.22ZM129.59,56.96l-28.62,16.52c-.85.49-1.92-.12-1.92-1.11V4.01c0-.99,1.07-1.6,1.92-1.11l28.62,16.52c.4.23.64.65.64,1.11v35.32c0,.46-.24.88-.64,1.11ZM67.14,19.43L95.75,2.91c.85-.49,1.92.12,1.92,1.11v68.36c0,.99-1.07,1.6-1.92,1.11l-28.62-16.52c-.4-.23-.64-.65-.64-1.11V20.54c0-.46.24-.88.64-1.11ZM65.12,58.13v33.04c0,.99-1.07,1.6-1.92,1.11L3.99,58.1c-.85-.49-.85-1.72,0-2.22l28.62-16.52c.4-.23.88-.23,1.28,0l30.59,17.66c.4.23.64.65.64,1.11ZM3.3,59.3l59.2,34.18c.85.49.85,1.72,0,2.22l-28.62,16.52c-.4.23-.88.23-1.28,0L2.02,94.56c-.4-.23-.64-.65-.64-1.11v-33.04c0-.99,1.07-1.6,1.92-1.11ZM33.89,114.55l28.62,16.52c.85.49.85,1.72,0,2.22L3.3,167.47c-.85.49-1.92-.12-1.92-1.11v-33.04c0-.46.24-.88.64-1.11l30.59-17.66c.4-.23.88-.23,1.28,0ZM32.61,187.41l-28.62-16.52c-.85-.49-.85-1.72,0-2.22l59.2-34.18c.85-.49,1.92.12,1.92,1.11v33.04c0,.46-.24.88-.64,1.11l-30.59,17.66c-.4.23-.88.23-1.28,0ZM67.14,169.81l28.62-16.52c.85-.49,1.92.12,1.92,1.11v68.36c0,.99-1.07,1.6-1.92,1.11l-28.62-16.52c-.4-.23-.64-.65-.64-1.11v-35.32c0-.46.24-.88.64-1.11ZM129.59,207.34l-28.62,16.52c-.85.49-1.92-.12-1.92-1.11v-68.36c0-.99,1.07-1.6,1.92-1.11l28.62,16.52c.4.23.64.65.64,1.11v35.32c0,.46-.24.88-.64,1.11ZM131.62,168.64v-33.04c0-.99,1.07-1.6,1.92-1.11l59.2,34.18c.85.49.85,1.72,0,2.22l-28.62,16.52c-.4.23-.88.23-1.28,0l-30.59-17.66c-.4-.23-.64-.65-.64-1.11ZM195.35,133.32v33.04c0,.99-1.07,1.6-1.92,1.11l-59.2-34.18c-.85-.49-.85-1.72,0-2.22l28.62-16.52c.4-.23.88-.23,1.28,0l30.59,17.66c.4.23.64.65.64,1.11ZM162.84,112.22l-28.62-16.52c-.85-.49-.85-1.72,0-2.22l59.2-34.18c.85-.49,1.92.12,1.92,1.11v33.04c0,.46-.24.88-.64,1.11l-30.59,17.66c-.4.23-.88.23-1.28,0Z"/>
  </g>
</svg>
